<?xml version="1.0" standalone="no"?><!DOCTYPE svg PUBLIC "-//W3C//DTD SVG 1.1//EN" "http://www.w3.org/Graphics/SVG/1.1/DTD/svg11.dtd"><svg class="icon" height="512" viewBox="0 0 1024 1024" version="1.1" xmlns="http://www.w3.org/2000/svg"><path d="M401.5 843l405.4-433.1v1.1c13.5-14.4 26.6-28.4 39-41.6V256.3h50.9c10.8 0 19.6-9.3 19.6-20.9V84.9c0-11.6-8.7-20.9-19.6-20.9H756c-10.8 0-19.6 9.3-19.6 20.9v54.3h-94.2l-0.5-0.1c-1-0.1-2-0.3-3-0.3s-2 0.1-3 0.3l-0.5 0.1H257.6V84.9c0-11.6-8.7-20.9-19.6-20.9H97.1c-10.8 0-19.6 9.3-19.6 20.9v150.5c0 11.6 8.7 20.9 19.6 20.9H148v511.5H97.1c-10.8 0-19.6 9.3-19.6 20.9v150.5c0 11.6 8.7 20.9 19.6 20.9H238c10.8 0 19.6-9.3 19.6-20.9v-54.3h104.8c13-14 26-27.9 39.1-41.9z m374.1-737.1h101.8v108.7H775.6V105.9z m-184.4 75.2L187.3 612.7V460.1l3.1-2.3c1.4-1.1 2.5-2 3.4-2.9L450 181.1h141.2z m-333.6 54.3v-54.3h136.9L187.2 402.8V256.3H238c10.9 0 19.6-9.3 19.6-20.9z m-140.9-20.8V105.9h101.8v108.7H116.7z m101.8 703.9l-101.8-0.1V809.8h101.8v108.7z m11.2-150.6h-42.6V675l0.1-7.6h4.1l455.1-486.3h89.8v45.6L229.7 767.9z m27.9 75.1v-45.8l506.5-540.9h42.8v94.3L346 843h-88.4zM938.8 567.2l-101.4-100c-4.9-4.8-11.5-7.6-18.4-7.6-6.6 0-13.3 2.6-18.4 7.6L487 776.3c-3.8 3.8-6.1 8.4-7.1 13.2h-0.1l-19 131-0.2 0.1 0.1 0.7-2 13.4c-0.3 1-0.6 2-0.6 3.1 0 4 3 7.3 7 7.7v0.3l0.8-0.2c0.1 0 0.1 0.1 0.1 0.1 1.2 0 2.3-0.2 3.2-0.6l142.5-25.3v-0.1c5.1-0.9 9.9-3.4 13.6-7l313.5-309.1c10.1-10.1 10.1-26.4 0-36.4z m-348 297.1l-64 11.4 9.6-65.8L819 531.3l54.9 54.1-283.1 278.9zM491.5 942.9h351.7v15.8H491.5v-15.8z" fill="#646464" /></svg>