<?xml version="1.0" encoding="utf-8"?>
<!-- Generator: Adobe Illustrator 16.0.0, SVG Export Plug-In . SVG Version: 6.00 Build 0)  -->
<!DOCTYPE svg PUBLIC "-//W3C//DTD SVG 1.1//EN" "http://www.w3.org/Graphics/SVG/1.1/DTD/svg11.dtd">
<svg version="1.1" id="Layer_1" xmlns="http://www.w3.org/2000/svg" xmlns:xlink="http://www.w3.org/1999/xlink" x="0px" y="0px"
	 width="256px" height="256px" viewBox="0 0 256 256" enable-background="new 0 0 256 256" xml:space="preserve">
<g>
	<path fill-rule="evenodd" clip-rule="evenodd" fill="#B4B4B4" d="M137.276,42.616c-0.076,0.255-0.157,0.403-0.157,0.551
		c-0.023,7.595-0.042,15.19-0.053,22.786c-0.003,2.652,0.021,5.304,0.021,7.956c0.003,15.209,0.024,30.417-0.031,45.625
		c-0.005,1.529,0.454,1.889,1.928,1.884c13.748-0.042,27.495-0.008,41.242,0.016c0.507,0.001,1.027,0.073,1.52,0.198
		c2.36,0.599,2.903,1.186,2.762,2.915c-0.168,2.069-1.272,3.152-3.477,3.19c-3.593,0.062-7.187,0.038-10.779,0.037
		c-11.823-0.002-23.646-0.007-35.468-0.017c-3.084-0.002-4.126-1.055-4.126-4.133c0-18.854,0-37.707,0-56.56
		c0-7.535,0-15.069,0-22.603c0-0.568,0-1.136,0-1.831c-35.338,0-70.562,0-105.886,0c0,26.238,0,52.399,0,78.754
		c0.76,0,1.422,0,2.084,0c18.018-0.001,36.036-0.006,54.054-0.002c4.946,0.001,9.892,0.057,14.837,0.001
		c0.579-0.007,1.228-0.478,1.713-0.889c5.844-4.939,11.656-9.916,17.491-14.865c1.685-1.43,3.596-1.358,4.838,0.118
		c1.193,1.417,0.986,3.303-0.624,4.693c-6.345,5.478-12.684,10.964-19.113,16.342c-0.778,0.651-2.092,0.928-3.159,0.93
		c-23.332,0.054-46.664,0.044-69.996,0.047c-0.665,0-1.329,0-2.111,0c0,28.575,0,56.982,0,85.533c34.056,0,68.123,0,102.37,0
		c0-0.717,0-1.379,0-2.042c0-20.521,0-41.04,0-61.561c0-0.416-0.011-0.833,0.002-1.249c0.065-2.004,1.324-3.34,3.155-3.355
		c1.823-0.017,3.17,1.32,3.191,3.307c0.041,3.646,0.016,7.291,0.016,10.938c0.001,4.577,0.001,9.155,0.001,13.864
		c21.372,0,42.642,0,64.089,0c0.024-0.508,0.074-1.058,0.074-1.61c0.006-5.521-0.015-11.041,0.014-16.562
		c0.01-1.813,0.936-2.959,2.505-3.312c1.421-0.32,2.924,0.341,3.514,1.68c0.262,0.596,0.356,1.307,0.358,1.967
		c0.024,6.874,0.021,13.75,0.011,20.624c-0.004,2.548-1.148,3.707-3.743,3.715c-7.135,0.022-14.271,0.01-21.405,0.01
		c-14.479,0.002-28.959,0.002-43.438,0.002c-0.564,0-1.13,0-1.886,0c-0.034,0.713-0.088,1.311-0.088,1.91
		c-0.006,11.405-0.004,22.812-0.005,34.217c0,2.941-1.096,4.046-4.05,4.046c-35.677,0.002-71.355,0.002-107.032-0.002
		c-3.131-0.001-4.202-1.095-4.211-4.244c-0.03-10.78-0.09-21.56-0.085-32.339c0.015-35.936,0.057-71.871,0.083-107.807
		c0.008-11.652,0.001-23.303,0.003-34.953c0-3.395,1.009-4.416,4.333-4.416c70.209,0.001,140.418,0.001,210.627,0.002
		c0.417,0,0.834-0.011,1.25,0.003c2.15,0.077,3.366,1.269,3.383,3.451c0.038,4.947,0.035,9.896,0.034,14.843
		c-0.004,16.042-0.013,32.083-0.022,48.125c-0.002,3.31-0.982,4.305-4.258,4.305c-9.166,0.003-18.333,0-27.499,0
		c-0.609,0-1.218,0-1.988,0c0,0.758,0,1.318,0,1.877c0.005,6.927-0.001,13.854,0.021,20.78c0.004,1.384-0.472,2.62-1.747,3.021
		c-0.975,0.307-2.327,0.295-3.183-0.174c-0.731-0.402-1.393-1.65-1.404-2.533c-0.112-8.382-0.081-16.766-0.084-25.148
		c-0.001-3.225,0.968-4.187,4.203-4.188c9.167-0.003,18.333-0.001,27.5-0.002c0.61,0,1.22,0,1.921,0c0-19.395,0-38.582,0-57.875
		c-9.063,0-18.045,0-27.227,0c0,0.667,0,1.273,0,1.879c0.002,11.51-0.027,23.021,0.03,34.532c0.01,1.849-0.587,3.135-2.08,4.23
		c-4.365,3.204-8.656,6.51-12.98,9.769c-1.893,1.425-3.773,1.352-4.974-0.171c-1.235-1.568-0.795-3.487,1.136-4.949
		c3.777-2.859,7.579-5.689,11.308-8.611c0.561-0.44,1.108-1.312,1.112-1.987c0.068-11.146,0.05-22.292,0.043-33.438
		c0-0.403-0.067-0.807-0.106-1.247C177.418,42.616,157.34,42.616,137.276,42.616z"/>
	<path fill-rule="evenodd" clip-rule="evenodd" fill="#B4B4B4" d="M36.897,54.985c0,5.92,0.008,11.586-0.007,17.252
		c-0.003,1.037-0.057,2.079-0.167,3.109c-0.188,1.756-1.597,3.003-3.251,2.948c-1.681-0.056-3.094-1.351-3.104-3.104
		c-0.042-7.804-0.043-15.609,0.004-23.412c0.011-1.831,1.38-3.091,3.245-3.095c11.135-0.023,22.269-0.024,33.404-0.004
		c1.956,0.003,3.316,1.372,3.323,3.186c0.007,1.812-1.322,3.192-3.305,3.193c-9.312,0.006-18.624-0.043-27.936-0.072
		C38.437,54.983,37.771,54.985,36.897,54.985z"/>
	<path fill-rule="evenodd" clip-rule="evenodd" fill="#B4B4B4" d="M36.592,201.846c0.845,0,1.462,0,2.08,0
		c5.781,0,11.562-0.014,17.343,0.011c2.233,0.01,3.666,1.279,3.7,3.165c0.035,1.937-1.446,3.267-3.746,3.271
		c-7.396,0.017-14.791,0.017-22.187-0.002c-2.492-0.008-3.702-1.248-3.69-3.805c0.02-4.682,0.139-9.361,0.134-14.041
		c-0.006-6.133-0.104-12.266-0.137-18.4c-0.01-1.957,0.851-3.243,2.322-3.647c2.125-0.585,4.055,0.892,4.103,3.238
		c0.07,3.54,0.07,7.081,0.076,10.622c0.009,5.937,0.002,11.873,0.001,17.811C36.592,200.581,36.592,201.092,36.592,201.846z"/>
	<path fill-rule="evenodd" clip-rule="evenodd" fill="#B4B4B4" d="M149.089,54.002c0,4.286,0.005,8.34-0.002,12.395
		c-0.003,1.608-1.479,2.882-3.53,3.077c-1.525,0.146-2.944-0.959-3.11-2.604c-0.142-1.387-0.092-2.795-0.096-4.195
		c-0.01-3.745-0.021-7.491,0.005-11.236c0.018-2.686,1.137-3.8,3.804-3.809c4.685-0.015,9.369-0.04,14.053,0.018
		c2.747,0.034,4.288,2.679,2.91,4.874c-0.706,1.122-1.787,1.496-3.075,1.486c-3.071-0.021-6.143-0.006-9.213-0.006
		C150.322,54.002,149.81,54.002,149.089,54.002z"/>
	<path fill-rule="evenodd" clip-rule="evenodd" fill="#B4B4B4" d="M145.119,162.129c4.282,0,8.337,0,12.39,0.001
		c1.041,0,2.084-0.024,3.124,0.012c1.973,0.068,3.367,1.398,3.375,3.178c0.009,1.781-1.339,3.146-3.316,3.228
		c-1.715,0.068-3.436,0.018-5.155,0.018c-4.269,0-8.539,0.008-12.81-0.004c-2.88-0.008-3.969-1.102-3.977-3.964
		c-0.006-2.344-0.021-4.688,0.002-7.029c0.021-2.085,1.321-3.514,3.157-3.534c1.821-0.021,3.159,1.41,3.203,3.481
		C145.145,159.009,145.119,160.505,145.119,162.129z"/>
	<path fill-rule="evenodd" clip-rule="evenodd" fill="#B4B4B4" d="M220.61,60.264c0-2.963-0.016-5.926,0.005-8.889
		c0.016-2.202,1.001-3.501,2.757-3.725c1.897-0.241,3.518,0.75,3.599,2.967c0.242,6.584,0.252,13.181,0.142,19.77
		c-0.03,1.812-1.794,2.868-3.587,2.723c-1.753-0.143-2.885-1.447-2.907-3.489C220.584,66.503,220.609,63.383,220.61,60.264z"/>
</g>
</svg>
