<?xml version="1.0" encoding="utf-8"?>
<!-- Generator: Adobe Illustrator 16.0.0, SVG Export Plug-In . SVG Version: 6.00 Build 0)  -->
<!DOCTYPE svg PUBLIC "-//W3C//DTD SVG 1.1//EN" "http://www.w3.org/Graphics/SVG/1.1/DTD/svg11.dtd">
<svg version="1.1" id="Layer_1" xmlns="http://www.w3.org/2000/svg" xmlns:xlink="http://www.w3.org/1999/xlink" x="0px" y="0px"
	 width="256px" height="256px" viewBox="0 0 256 256" enable-background="new 0 0 256 256" xml:space="preserve">
<g>
	<path fill-rule="evenodd" clip-rule="evenodd" fill="#646464" d="M26.239,185.744c3.867-13.003,7.757-25.997,11.59-39.01
		c2.114-7.178,4.127-14.385,6.188-21.579c1.822-6.364,2.199-6.657,8.607-6.687c1.789-0.008,3.579-0.001,5.985-0.001
		c0-1.919,0-3.513,0-5.107c0-16.061,0.028-32.121-0.021-48.182c-0.01-3.255,0.304-6.406,4.374-6.457
		c4.277-0.054,4.762,3.197,4.755,6.617c-0.029,15.911-0.013,31.821-0.012,47.732c0,1.618,0,3.235,0,5.122
		c39.974,0,79.537,0,119.83,0c0-1.522,0-3.09,0-4.659c0-16.21,0.02-32.421-0.015-48.632c-0.007-3.135,0.61-5.979,4.283-6.187
		c3.99-0.226,4.858,2.562,4.848,5.996c-0.048,16.061-0.021,32.122-0.021,48.182c0,1.626,0,3.253,0,5.575
		c2.498,0,4.694,0.144,6.866-0.03c4.358-0.349,6.437,1.643,7.596,5.819c5.521,19.894,11.283,39.72,16.981,59.563
		c0.193,0.675,0.612,1.284,0.927,1.924c0,9.312,0,18.624,0,27.937c-2.205,8.007-7.363,13.063-15.319,15.319
		c-57.375,0-114.749,0-172.122,0c-7.999-2.215-13.12-7.306-15.32-15.319C26.239,204.368,26.239,195.056,26.239,185.744z
		 M217.923,182.769c0-0.678,0.103-1.149-0.014-1.56c-4.785-16.834-9.669-33.64-14.32-50.51c-0.857-3.106-2.614-3.329-5.248-3.325
		c-47.12,0.056-94.241,0.079-141.361-0.042c-3.326-0.009-4.651,1.07-5.503,4.167c-3.729,13.557-7.703,27.045-11.56,40.566
		c-1.001,3.508-1.901,7.044-2.884,10.703C97.682,182.769,157.792,182.769,217.923,182.769z M35.334,192.297
		c0,5.155-0.001,9.798,0,14.439c0.002,10.313,2.832,13.188,12.995,13.188c52.837,0.002,105.675,0.002,158.513-0.002
		c1.5,0,3.017,0.083,4.498-0.099c4.416-0.543,8.154-3.788,8.39-8.107c0.349-6.388,0.09-12.808,0.09-19.42
		C158.216,192.297,97.048,192.297,35.334,192.297z"/>
	<path fill-rule="evenodd" clip-rule="evenodd" fill="#646464" d="M132.576,26.239c7.522,1.959,14.975,4.081,21.031,9.338
		c1.217,1.056,2.403,2.146,3.835,3.428c-2.023,2.294-3.785,4.292-5.889,6.675c-7.088-6.609-15.202-10.711-24.997-10.316
		c-9.632,0.39-17.533,4.572-23.76,11.413c-2.147-2.118-4.142-4.084-6.35-6.261c6.353-7.171,14.222-11.646,23.662-13.437
		c1.163-0.22,2.304-0.557,3.455-0.84C126.568,26.239,129.571,26.239,132.576,26.239z"/>
	<path fill-rule="evenodd" clip-rule="evenodd" fill="#646464" d="M144.949,52.966c-1.877,2.061-3.771,4.14-5.648,6.201
		c-9.96-7.323-14.814-7.175-23.848,0.683c-1.891-2.063-3.789-4.134-5.718-6.238C118.074,42.083,135.007,41.591,144.949,52.966z"/>
	<path fill-rule="evenodd" clip-rule="evenodd" fill="#646464" d="M109.166,210.398c-7.191,0-14.383-0.021-21.574,0.01
		c-3.208,0.014-5.859-0.832-5.806-4.597c0.049-3.512,2.602-4.319,5.619-4.316c14.532,0.014,29.065,0.025,43.598-0.01
		c3.09-0.007,5.566,0.975,5.602,4.364c0.039,3.693-2.645,4.582-5.863,4.563C123.55,210.369,116.358,210.398,109.166,210.398z"/>
	<circle fill-rule="evenodd" clip-rule="evenodd" fill="#646464" cx="127.168" cy="67.729" r="5.4"/>
	<circle fill-rule="evenodd" clip-rule="evenodd" fill="#646464" cx="66.791" cy="205.606" r="4.645"/>
	<circle fill-rule="evenodd" clip-rule="evenodd" fill="#646464" cx="50.57" cy="205.606" r="4.645"/>
</g>
</svg>
