<?xml version="1.0" encoding="utf-8"?>
<!-- Generator: Adobe Illustrator 16.0.0, SVG Export Plug-In . SVG Version: 6.00 Build 0)  -->
<!DOCTYPE svg PUBLIC "-//W3C//DTD SVG 1.1//EN" "http://www.w3.org/Graphics/SVG/1.1/DTD/svg11.dtd">
<svg version="1.1" id="Layer_1" xmlns="http://www.w3.org/2000/svg" xmlns:xlink="http://www.w3.org/1999/xlink" x="0px" y="0px"
	 width="256px" height="256px" viewBox="0 0 256 256" enable-background="new 0 0 256 256" xml:space="preserve">
<path fill-rule="evenodd" clip-rule="evenodd" fill="#646464" d="M81.493,241.035c-1.72-0.944-3.279-1.408-4.295-2.416
	c-14.574-14.466-29.09-28.99-43.582-43.537c-2.743-2.755-2.604-5.657,0.302-8.578c7.877-7.918,15.79-15.8,23.683-23.7
	c28.537-28.568,57.064-57.145,85.61-85.703c14.458-14.461,28.938-28.896,43.426-43.328c3.134-3.124,6.159-3.12,9.176-0.096
	c14.079,14.109,28.163,28.216,42.243,42.325c3.676,3.682,3.703,6.244,0.076,9.871c-50.666,50.672-101.329,101.344-152.034,151.978
	C84.841,239.106,83.137,239.915,81.493,241.035z M45.599,190.792c11.953,11.985,23.882,23.948,35.552,35.648
	c48.496-48.497,97.124-97.125,145.648-145.651c-11.74-11.731-23.698-23.679-35.496-35.469c-4.5,4.496-9.162,9.151-14.267,14.25
	c0.563,0.396,1.427,0.842,2.088,1.494c5.314,5.257,10.621,10.522,15.861,15.853c2.422,2.464,2.376,5.841,0.071,8.033
	c-2.263,2.152-5.386,2.089-7.84-0.303c-3.691-3.598-7.32-7.26-10.945-10.926c-2.283-2.312-4.51-4.682-6.473-6.724
	c-4.93,4.981-9.552,9.651-14.446,14.597c2.049,1.947,4.374,4.106,6.634,6.329c1.586,1.558,2.222,3.45,1.53,5.645
	c-1.26,4.003-5.956,5.233-9.113,2.245c-2.408-2.279-4.565-4.824-6.635-7.037c-5.097,5.087-9.703,9.687-14.752,14.724
	c0.793,0.627,1.809,1.292,2.657,2.129c5.067,5.017,10.118,10.051,15.13,15.125c2.537,2.569,2.654,5.718,0.424,8.027
	c-2.27,2.347-5.569,2.23-8.227-0.302c-0.619-0.593-1.219-1.209-1.825-1.818c-5.251-5.285-10.503-10.57-15.555-15.655
	c-4.863,4.866-9.521,9.525-14.384,14.39c1.883,1.804,3.957,3.734,5.967,5.729c3.143,3.118,3.443,6.268,0.901,8.759
	c-2.397,2.35-5.659,2.026-8.581-0.912c-2.044-2.058-4.028-4.175-5.685-5.897c-4.946,4.961-9.583,9.613-14.368,14.413
	c5.61,5.576,11.479,11.363,17.292,17.207c2.543,2.556,2.62,6.025,0.321,8.234c-2.226,2.138-5.567,2.004-8.055-0.438
	c-3.924-3.852-7.821-7.734-11.664-11.666c-1.967-2.013-3.793-4.164-5.384-5.921c-5.122,5.109-9.765,9.74-14.493,14.456
	c-0.084-0.21-0.073-0.11-0.018-0.054c2.045,2.083,4.103,4.154,6.142,6.244c2.601,2.665,2.833,5.914,0.606,8.218
	c-2.373,2.457-5.596,2.301-8.397-0.474c-2.17-2.15-4.279-4.359-6.292-6.418C54.641,181.76,50.033,186.363,45.599,190.792z"/>
<path fill-rule="evenodd" clip-rule="evenodd" fill="#646464" d="M20.65,180.789c-1.803-1.427-3.565-2.36-4.656-3.804
	c-1.27-1.68-0.99-3.774,0.254-5.551c0.537-0.767,1.222-1.437,1.888-2.103c50.479-50.487,100.961-100.97,151.446-151.451
	c0.608-0.606,1.196-1.248,1.876-1.762c2.221-1.675,5.102-1.503,7.069,0.364c2.056,1.949,2.344,4.941,0.652,7.249
	c-0.454,0.619-1.025,1.155-1.571,1.701C127.006,76.041,76.406,126.652,25.764,177.221C24.444,178.539,22.669,179.4,20.65,180.789z"
	/>
</svg>
