<?xml version="1.0" encoding="utf-8"?>
<!-- Generator: Adobe Illustrator 16.0.0, SVG Export Plug-In . SVG Version: 6.00 Build 0)  -->
<!DOCTYPE svg PUBLIC "-//W3C//DTD SVG 1.1//EN" "http://www.w3.org/Graphics/SVG/1.1/DTD/svg11.dtd">
<svg version="1.1" id="Layer_1" xmlns="http://www.w3.org/2000/svg" xmlns:xlink="http://www.w3.org/1999/xlink" x="0px" y="0px"
	 width="256px" height="256px" viewBox="0 0 256 256" enable-background="new 0 0 256 256" xml:space="preserve">
<path fill-rule="evenodd" clip-rule="evenodd" fill="#646464" d="M125.485,129.7c-1.496,1.839-3.175,4.255-5.209,6.324
	c-3.242,3.297-5.339,3.286-8.596,0.2c-2.647-2.509-5.17-5.146-7.746-7.73c-2.649-2.66-2.722-5.421-0.033-8.017
	c2.195-2.119,4.6-4.021,6.313-5.5c-2.461-6.194-4.399-11.344-6.597-16.38c-0.448-1.027-1.801-2.189-2.855-2.317
	c-2.699-0.329-5.465-0.11-8.44-0.11c-0.093,1.657-0.268,2.935-0.213,4.203c0.106,2.427-0.997,3.579-3.386,3.391
	c-2.182-0.172-3.594,0.423-4.05,2.843c-0.479,2.533-3.647,4.884,0.001,7.613c0.694,0.519,0.794,3.283,0.139,3.875
	c-1.752,1.585-5.675,3.865-5.912,3.573c-4.136-5.087-7.506-0.29-11.082,0.327c-0.602,6.478-0.91,6.661-6.611,6.436
	c-2.61-0.102-3.458-1.13-3.699-3.683c-0.123-1.296-1.445-3.085-2.646-3.541c-2.237-0.848-4.542-3.871-7.267-0.44
	c-2.439,3.07-4.211,0.674-6.024-1.054c-1.936-1.844-3.543-3.489-0.886-6.158c0.824-0.827,1.276-2.942,0.802-3.956
	c-0.988-2.116-2.671-5.483-4.132-5.516c-5.059-0.115-4.164-3.262-4.331-6.262c-0.197-3.549,1.816-4.188,4.702-3.945
	c0.424,0.036,0.861-0.078,1.547-0.149c0.819-1.878,1.878-3.788,2.45-5.834c0.279-1,0.054-2.715-0.633-3.314
	c-3.888-3.386-0.563-5.108,1.349-7.365c2.412-2.847,4.195-1.535,6.026,0.571c0.283,0.325,0.65,0.577,1.202,1.057
	c2.005-0.796,4.315-1.353,6.169-2.592c1.007-0.673,1.056-2.637,1.875-3.777c0.855-1.192,2.132-2.965,3.193-2.943
	c2.185,0.045,6.279,1.441,6.233,1.718c-0.866,5.156,3.314,5.373,6.22,6.814c0.522,0.26,1.049,0.508,1.576,0.757
	c5.732-3.985,5.561-3.812,9.433-0.008c3.615,3.551-0.309,4.928-1.834,7.464c2.192,2.078,0.821,6.855,5.596,7.724
	c0-5.053-0.086-9.683,0.024-14.309c0.109-4.584,1.585-5.985,6.066-6.151c8.315-0.307,8.235-0.339,11.233-7.833
	c1.349-3.371,3.087-6.587,5.121-10.864c-1.971-1.685-4.375-3.585-6.595-5.681c-2.708-2.556-2.756-5.322-0.108-8.01
	c2.663-2.702,5.35-5.38,8.053-8.042c2.694-2.652,5.487-2.557,8.041,0.087c2.118,2.193,3.99,4.624,5.687,6.615
	c3.887-1.882,6.71-3.405,9.656-4.628c2.811-1.167,5.751-2.021,9-3.137c0-2.853,0.021-5.751-0.006-8.65
	c-0.036-3.92,1.741-6.011,5.799-5.967c3.646,0.04,7.296,0.036,10.943,0.001c4.044-0.039,5.849,2.016,5.794,5.96
	c-0.042,2.901-0.009,5.804-0.009,8.249c6.242,2.613,11.997,5.022,18.912,7.918c1.348-1.603,3.076-3.975,5.126-6.027
	c3.16-3.166,5.474-3.145,8.644-0.128c2.643,2.514,5.185,5.133,7.748,7.729c2.646,2.683,2.617,5.447-0.072,8.016
	c-2.209,2.111-4.608,4.024-6.358,5.539c2.845,6.79,5.255,12.542,7.899,18.855c2.38,0,5.273-0.059,8.165,0.013
	c4.602,0.117,5.932,1.436,6.06,6.114c0.095,3.5-0.002,7.003,0.018,10.505c0.022,3.976-2.089,6.462-5.887,5.851
	c-7.163-1.153-10.464,1.771-11.839,8.589c-0.64,3.173-2.733,6.053-4.702,10.184c1.851,1.535,4.239,3.241,6.291,5.284
	c3.226,3.211,3.203,5.395,0.132,8.618c-2.615,2.746-5.314,5.417-8.051,8.043c-2.403,2.307-4.992,2.343-7.339-0.022
	c-2.25-2.27-4.3-4.737-5.935-6.559c-6.091,2.435-11.273,4.336-16.275,6.63c-1.157,0.531-2.467,2.435-2.41,3.646
	c0.658,13.907-2.875,11.736-12.404,11.84c-1.459,0.017-2.919,0.015-4.377-0.01c-3.928-0.061-6.362-2.102-5.766-5.98
	c1.05-6.815-1.272-10.391-8.24-11.643C132.851,134.049,129.838,131.784,125.485,129.7z M186.868,84.661
	c-0.065-17.508-13.944-31.226-31.528-31.164c-17.282,0.062-31.029,13.864-31.065,31.19c-0.036,17.489,13.868,31.455,31.311,31.448
	C173.013,116.13,186.934,102.125,186.868,84.661z M62.374,112.542c7.725,0.081,13.952-6.046,13.925-13.701
	c-0.025-7.423-6.138-13.595-13.567-13.696c-7.672-0.105-13.857,6.046-13.844,13.771C48.9,106.505,54.797,112.463,62.374,112.542z"/>
<path fill-rule="evenodd" clip-rule="evenodd" fill="#646464" d="M131.778,161.699c1.638,3.987,3.376,7.534,4.526,11.262
	c0.731,2.373,1.712,3.167,4.211,3.178c8.557,0.04,8.557,0.15,8.557,8.836c0,0.875,0.004,1.75-0.001,2.625
	c-0.037,5.618-0.718,6.595-6.306,6.238c-4.245-0.271-6.215,1.082-7.14,5.285c-0.672,3.055-2.514,5.852-3.744,8.563
	c2.066,3.062,6.004,6.324,5.679,9.083c-0.381,3.222-4.19,6.323-7.03,8.909c-6.462,5.885-7.759-3.172-11.918-4.199
	c-4.027,1.562-8.244,3.1-12.355,4.877c-0.814,0.351-1.493,1.555-1.757,2.499c-0.302,1.083-0.068,2.314-0.077,3.48
	c-0.043,5.578-0.67,6.186-6.408,6.231c-0.292,0.002-0.583,0.001-0.875,0.001c-9.703,0.019-9.635,0.011-10.743-9.447
	c-0.125-1.072-1.329-2.358-2.369-2.913c-1.905-1.018-4.099-1.473-6.101-2.329c-1.864-0.799-3.635-1.814-5.421-2.721
	c-9.391,7.457-9.391,7.457-16.631,0.116c-4.02-4.076-4.02-4.076,3.198-12.96c-1.626-4.157-3.075-8.262-4.883-12.202
	c-0.455-0.993-1.977-1.828-3.149-2.081c-1.676-0.361-3.485-0.052-5.23-0.147c-3.627-0.199-4.367-2.844-3.859-5.579
	c0.767-4.133-2.981-11.439,3.451-11.684c7.344-0.278,9.7-3.327,11.25-9.22c0.505-1.922,1.762-3.646,2.646-5.405
	c-7.437-9.23-7.437-9.23-2.8-13.881c6.69-6.708,6.69-6.708,15.992,0.727c1.956-0.97,3.816-2.272,5.881-2.849
	c5.568-1.557,9.831-3.701,8.412-10.835c-0.188-0.948,2.315-3.248,3.842-3.549c2.949-0.581,6.092-0.175,9.155-0.189
	c3.323-0.016,5.102,1.783,4.563,4.928c-0.92,5.367,1.282,7.834,6.396,8.943c2.762,0.599,5.279,2.332,7.876,3.542
	c8.934-7.691,8.934-7.691,16.3-0.261C139.375,153.068,139.375,153.068,131.778,161.699z M95.393,160.147
	c-13.917,0.049-25.081,11.252-24.948,25.034c0.132,13.553,11.299,24.716,24.853,24.846c13.721,0.131,25.01-11.124,25.042-24.969
	C120.374,171.131,109.324,160.1,95.393,160.147z"/>
</svg>
